# xmcd
#
# Track frame offsets: 
#        150
#        11956
#        21682
#        32745
#        43414
#        54033
#        66524
#        76870
#        89547
#        102236
#        115086
#        125875
#        138758
#        152319
#        162464
#        176378
#        187207
#        196601
#        209289
#        219979
#        233319
#        250219
#        262263
#        272175
#        282883
#
# Disc length: 3946 seconds
#
# Revision: 0
# Processed by: cddbd v1.5.2PL0 Copyright (c) Steve Scherf et al.
# Submitted via: ExactAudioCopyFreeDBPlugin 1.0
#
DISCID=6a0f6819
DTITLE=Various Artist - The Willie Dixon Story: The Record Company Man
DYEAR=2012
DGENRE=Blues
TTITLE0=Otis Rush - All Your Love (I Miss Loving)
TTITLE1=Magic Sam - Love Me With A Feeling
TTITLE2=Howlin' Wolf - The Red Rooster
TTITLE3=Walter Horton - Have A Good Time 
TTITLE4=Otis Rush - Keep On Loving Me Baby
TTITLE5=Little Willie Foster - Crying The Blues
TTITLE6=Magic Sam - All My Whole Life
TTITLE7=Howlin' Wolf - Forty Four
TTITLE8=Arbee Stidham - When I Find My Baby
TTITLE9=Otis Rush - It Takes Time
TTITLE10=Sunnyland Slim - It's You Baby
TTITLE11=Magic Sam - All Night Long
TTITLE12=Charles Clark - Row Your Boat
TTITLE13=Guitar Shorty - You Don't Treat Me Right
TTITLE14=Howlin' Wolf - Smokestack Lightin'
TTITLE15=Otis Rush - Sit Down Baby 
TTITLE16=Betty Everett - My Life Depends On You
TTITLE17=Magic Sam - 21 Days In Jail
TTITLE18=Walter Horton - Need My Baby
TTITLE19=Harold Burrage - Satisfied
TTITLE20=Otis Rush - I Can't Quit You Baby
TTITLE21=Little Walter Foster - Little Girl
TTITLE22=Guitar Shorty - Irma Lee
TTITLE23=Betty Everett - My Love
TTITLE24=Magic Sam - All Your Love
EXTD=
EXTT0=
EXTT1=
EXTT2=
EXTT3=
EXTT4=
EXTT5=
EXTT6=
EXTT7=
EXTT8=
EXTT9=
EXTT10=
EXTT11=
EXTT12=
EXTT13=
EXTT14=
EXTT15=
EXTT16=
EXTT17=
EXTT18=
EXTT19=
EXTT20=
EXTT21=
EXTT22=
EXTT23=
EXTT24=
PLAYORDER=
